<svg width="24" height="24" viewBox="0 0 24 24" fill="none" xmlns="http://www.w3.org/2000/svg">
<path fill-rule="evenodd" clip-rule="evenodd" d="M5.29748 12.7117C5.28095 12.6954 5.265 12.6785 5.24964 12.6611C5.18271 12.5853 5.12925 12.5017 5.08924 12.4136C5.03192 12.2875 5 12.1475 5 12.0001C5 11.8526 5.03192 11.7126 5.08924 11.5865C5.12925 11.4984 5.18271 11.4148 5.24964 11.339C5.265 11.3216 5.28095 11.3047 5.29748 11.2884L11.293 5.29289C11.6835 4.90237 12.3167 4.90237 12.7072 5.29289C13.0977 5.68342 13.0977 6.31658 12.7072 6.70711L8.41424 11.0001H19C19.5523 11.0001 20 11.4478 20 12.0001C20 12.5523 19.5523 13.0001 19 13.0001H8.41424L12.7072 17.293C13.0977 17.6835 13.0977 18.3167 12.7072 18.7072C12.3167 19.0977 11.6835 19.0977 11.293 18.7072L5.29748 12.7117Z" fill="currentcolor"/>
</svg>
