<svg width="24" height="24" viewBox="0 0 24 24" fill="none" xmlns="http://www.w3.org/2000/svg">
<path fill-rule="evenodd" clip-rule="evenodd" d="M6 4C6 2.89543 6.89543 2 8 2H16C17.1046 2 18 2.89543 18 4H20C21.1046 4 22 4.89543 22 6V8.8C22 11.1196 20.1196 13 17.8 13C17.753 13 17.7065 12.9982 17.6605 12.9947C16.9451 15.0248 15.1684 16.5545 12.9967 16.9176C12.9989 16.9448 13 16.9723 13 17V20H14C14.5523 20 15 20.4477 15 21C15 21.5523 14.5523 22 14 22H12H10C9.44772 22 9 21.5523 9 21C9 20.4477 9.44772 20 10 20H11V17C11 16.9723 11.0011 16.9448 11.0033 16.9176C8.83157 16.5545 7.05492 15.0248 6.33953 12.9947C6.29348 12.9982 6.24695 13 6.2 13C3.8804 13 2 11.1196 2 8.8V6C2 4.89543 2.89543 4 4 4H6ZM16 11V6V4H8V6V11C8 13.2091 9.79086 15 12 15C14.2091 15 16 13.2091 16 11ZM18 10.991C19.1213 10.89 20 9.94761 20 8.8V6H18V10.991ZM6 6V10.991C4.8787 10.89 4 9.94761 4 8.8V6H6Z" fill="currentcolor"/>
</svg>
