<svg width="24" height="24" viewBox="0 0 24 24" fill="none" xmlns="http://www.w3.org/2000/svg">
<path fill-rule="evenodd" clip-rule="evenodd" d="M3 4C1.89543 4 1 4.89543 1 6V9V15V18C1 19.1046 1.89543 20 3 20H11H13H21C22.1046 20 23 19.1046 23 18V15V9V6C23 4.89543 22.1046 4 21 4H13H11H3ZM13 18H21V16H19C18.4477 16 18 15.5523 18 15V9C18 8.44772 18.4477 8 19 8H21V6L13 6V9.17071C14.1652 9.58254 15 10.6938 15 12C15 13.3062 14.1652 14.4175 13 14.8293V18ZM11 14.8293V18H3V16H5C5.55228 16 6 15.5523 6 15V9C6 8.44772 5.55228 8 5 8H3V6L11 6V9.17071C9.83481 9.58254 9 10.6938 9 12C9 13.3062 9.83481 14.4175 11 14.8293ZM12 13C12.5523 13 13 12.5523 13 12C13 11.4477 12.5523 11 12 11C11.4477 11 11 11.4477 11 12C11 12.5523 11.4477 13 12 13ZM20 10H21V14H20V10ZM3 10V14H4V10H3Z" fill="currentcolor"/>
</svg>
