<svg width="24" height="24" viewBox="0 0 24 24" fill="none" xmlns="http://www.w3.org/2000/svg">
<path fill-rule="evenodd" clip-rule="evenodd" d="M19 2C20.1046 2 21 2.89543 21 4V17C21 18.1046 20.1046 19 19 19H18V20C18 21.1046 17.1046 22 16 22H7C4.79086 22 3 20.2091 3 18V7C3 5.89543 3.89543 5 5 5H6V4C6 2.89543 6.89543 2 8 2H19ZM8 19H16V20H7C5.89543 20 5 19.1046 5 18L5 7H6L6 17C6 18.1046 6.89543 19 8 19ZM19 17L19 4L8 4L8 17L19 17ZM16 8C16.5523 8 17 7.55229 17 7C17 6.44772 16.5523 6 16 6L11 6C10.4477 6 10 6.44772 10 7C10 7.55228 10.4477 8 11 8L16 8ZM17 10C17 10.5523 16.5523 11 16 11H11C10.4477 11 10 10.5523 10 10C10 9.44772 10.4477 9 11 9L16 9C16.5523 9 17 9.44772 17 10ZM14 14C14.5523 14 15 13.5523 15 13C15 12.4477 14.5523 12 14 12H11C10.4477 12 10 12.4477 10 13C10 13.5523 10.4477 14 11 14H14Z" fill="currentcolor"/>
</svg>
