<svg width="24" height="24" viewBox="0 0 24 24" fill="none" xmlns="http://www.w3.org/2000/svg">
<path fill-rule="evenodd" clip-rule="evenodd" d="M18.7027 11.2886C18.7189 11.3046 18.7346 11.3211 18.7496 11.3382C18.8169 11.4142 18.8706 11.4981 18.9108 11.5865C18.9681 11.7126 19 11.8526 19 12.0001C19 12.148 18.9679 12.2884 18.9102 12.4147C18.8705 12.5019 18.8177 12.5846 18.7516 12.6597C18.7359 12.6776 18.7194 12.695 18.7024 12.7118L12.707 18.7072C12.3165 19.0977 11.6833 19.0977 11.2928 18.7072C10.9023 18.3167 10.9023 17.6835 11.2928 17.293L15.5858 13.0001L5 13.0001C4.44772 13.0001 4 12.5523 4 12.0001C4 11.4478 4.44772 11.0001 5 11.0001L15.5858 11.0001L11.2928 6.70711C10.9023 6.31658 10.9023 5.68342 11.2928 5.29289C11.6833 4.90237 12.3165 4.90237 12.707 5.29289L18.7027 11.2886Z" fill="currentcolor"/>
</svg>
