<svg width="24" height="24" viewBox="0 0 24 24" fill="none" xmlns="http://www.w3.org/2000/svg">
<path fill-rule="evenodd" clip-rule="evenodd" d="M12.0007 2C12.3875 2.00002 12.7396 2.22315 12.9049 2.57294L15.4653 7.99424L21.1538 8.87962C21.5231 8.9371 21.8296 9.19574 21.9483 9.55016C22.067 9.90457 21.9781 10.2956 21.7179 10.5639L17.5803 14.8303L18.545 20.8403C18.6055 21.2175 18.4458 21.5962 18.1335 21.8163C17.8212 22.0363 17.4108 22.0591 17.076 21.8751L12.0007 19.0858L6.92416 21.8763C6.58935 22.0604 6.17894 22.0376 5.86659 21.8175C5.55424 21.5975 5.39455 21.2188 5.45509 20.8415L6.4197 14.8316L2.28216 10.5652C2.02195 10.2969 1.93309 9.90583 2.05179 9.55141C2.17048 9.197 2.47692 8.93836 2.84623 8.88088L8.53481 7.99549L11.0964 2.57287C11.2617 2.22309 11.6138 1.99998 12.0007 2ZM12.0005 5.34139L10.1167 9.32919C9.97506 9.62903 9.69398 9.83915 9.36631 9.89015L5.06311 10.5599L8.20436 13.799C8.42396 14.0254 8.52384 14.3422 8.47386 14.6537L7.75413 19.1379L11.5189 17.0684C11.8189 16.9035 12.1823 16.9035 12.4823 17.0684L16.246 19.1368L15.5262 14.6524C15.4762 14.341 15.5761 14.0242 15.7957 13.7977L18.9369 10.5587L14.6337 9.8889C14.306 9.83789 14.0249 9.62774 13.8833 9.32785L12.0005 5.34139Z" fill="currentcolor"/>
</svg>
