<svg width="24" height="24" viewBox="0 0 24 24" fill="none" xmlns="http://www.w3.org/2000/svg">
<path fill-rule="evenodd" clip-rule="evenodd" d="M17.7726 17L6.22736 17C6.10179 17 6 16.8982 6 16.7726C6 16.4198 6.08216 16.0718 6.23996 15.7561L6.45637 15.3233C6.80038 14.6353 7.01596 13.8903 7.0925 13.1248L7.49752 9.07469C7.72883 6.76153 9.67531 5 12 5C14.3247 5 16.2712 6.76153 16.5025 9.07469L16.9075 13.1248C16.984 13.8903 17.1996 14.6353 17.5436 15.3233L17.76 15.7561C17.9178 16.0718 18 16.4198 18 16.7726C18 16.8982 17.8982 17 17.7726 17ZM15 19H17.7726C19.0028 19 20 18.0028 20 16.7726C20 16.1093 19.8456 15.455 19.5489 14.8617L19.3325 14.4289C19.0973 13.9585 18.9499 13.4491 18.8976 12.9258L18.4926 8.87568C18.159 5.54012 15.3522 3 12 3C8.64781 3 5.841 5.54012 5.50744 8.87568L5.10243 12.9258C5.0501 13.4491 4.90271 13.9585 4.66751 14.4289L4.45111 14.8617C4.15445 15.455 4 16.1093 4 16.7726C4 18.0028 4.99722 19 6.22736 19L9 19C9 20.6569 10.3431 22 12 22C13.6569 22 15 20.6569 15 19ZM13 19H11C11 19.5523 11.4477 20 12 20C12.5523 20 13 19.5523 13 19Z" fill="currentcolor"/>
</svg>
