<svg width="24" height="24" viewBox="0 0 24 24" fill="none" xmlns="http://www.w3.org/2000/svg">
<path fill-rule="evenodd" clip-rule="evenodd" d="M7 6C6.44772 6 6 5.55228 6 5H4V8H20V5H18C18 5.55228 17.5523 6 17 6C16.4477 6 16 5.55228 16 5H8C8 5.55228 7.55228 6 7 6ZM16 3H8V2C8 1.44772 7.55228 1 7 1C6.44772 1 6 1.44772 6 2V3H4C2.89543 3 2 3.89543 2 5V9V19C2 20.1046 2.89543 21 4 21H20C21.1046 21 22 20.1046 22 19V9V5C22 3.89543 21.1046 3 20 3H18V2C18 1.44772 17.5523 1 17 1C16.4477 1 16 1.44772 16 2V3ZM4 10H20V19H4V10Z" fill="currentcolor"/>
</svg>
