<svg width="24" height="24" viewBox="0 0 24 24" fill="none" xmlns="http://www.w3.org/2000/svg">
<path fill-rule="evenodd" clip-rule="evenodd" d="M6.34315 6.34315C3.21895 9.46734 3.21895 14.5327 6.34315 17.6569C6.73367 18.0474 6.73367 18.6805 6.34315 19.0711C5.95262 19.4616 5.31946 19.4616 4.92893 19.0711C1.02369 15.1658 1.02369 8.83418 4.92893 4.92893C8.83418 1.02369 15.1658 1.02369 19.0711 4.92893C22.9763 8.83418 22.9763 15.1658 19.0711 19.0711C18.6805 19.4616 18.0474 19.4616 17.6569 19.0711C17.2663 18.6805 17.2663 18.0474 17.6569 17.6569C20.781 14.5327 20.781 9.46734 17.6569 6.34315C14.5327 3.21895 9.46734 3.21895 6.34315 6.34315ZM9.2071 9.2071C7.66462 10.7496 7.66462 13.2504 9.2071 14.7929C9.59762 15.1834 9.59762 15.8166 9.2071 16.2071C8.81657 16.5976 8.18341 16.5976 7.79288 16.2071C5.46936 13.8836 5.46936 10.1164 7.79288 7.79288C10.1164 5.46936 13.8836 5.46936 16.2071 7.79288C18.5306 10.1164 18.5306 13.8836 16.2071 16.2071C15.8166 16.5976 15.1834 16.5976 14.7929 16.2071C14.4024 15.8166 14.4024 15.1834 14.7929 14.7929C16.3354 13.2504 16.3354 10.7496 14.7929 9.2071C13.2504 7.66462 10.7496 7.66462 9.2071 9.2071ZM12 14C13.1046 14 14 13.1046 14 12C14 10.8954 13.1046 10 12 10C10.8954 10 9.99998 10.8954 9.99998 12C9.99998 13.1046 10.8954 14 12 14Z" fill="currentcolor"/>
</svg>
