<svg width="24" height="24" viewBox="0 0 24 24" fill="none" xmlns="http://www.w3.org/2000/svg">
<path fill-rule="evenodd" clip-rule="evenodd" d="M11 5.07089C8.5362 5.42331 6.48627 7.05871 5.54869 9.27861L7.66398 9.86821L11 7.48535V5.07089ZM5 12C5 11.7343 5.0148 11.4721 5.04363 11.2141L7.26435 11.8331L8.38298 15.2955L7.05543 16.9549C5.78564 15.6878 5 13.9356 5 12ZM12 19C10.7899 19 9.65158 18.693 8.65859 18.1525L9.98062 16.5H14.0194L15.3414 18.1525C14.3484 18.693 13.2101 19 12 19ZM16.9446 16.9549C18.2144 15.6878 19 13.9356 19 12C19 11.7343 18.9852 11.4721 18.9564 11.2141L16.7355 11.8331L15.6169 15.2954L16.9446 16.9549ZM16.3359 9.86823L18.4513 9.27861C17.5137 7.05871 15.4638 5.42331 13 5.07089V7.48542L16.3359 9.86823ZM3 12C3 7.02944 7.02944 3 12 3C16.9706 3 21 7.02944 21 12C21 16.9706 16.9706 21 12 21C7.02944 21 3 16.9706 3 12ZM9.17639 11.2457L10.2278 14.5H13.7721L14.8235 11.2457L11.9999 9.2289L9.17639 11.2457Z" fill="currentcolor"/>
</svg>
