<svg width="24" height="24" viewBox="0 0 24 24" fill="none" xmlns="http://www.w3.org/2000/svg">
<path fill-rule="evenodd" clip-rule="evenodd" d="M15.2929 9.29289C14.9024 9.68342 14.9024 10.3166 15.2929 10.7071C15.6834 11.0976 16.3166 11.0976 16.7071 10.7071L19.7057 7.70855C19.7098 7.70443 19.7139 7.70028 19.718 7.69609C19.8925 7.51606 20 7.27058 20 7C20 6.86333 19.9726 6.73307 19.923 6.6144C19.8742 6.49751 19.8022 6.38801 19.7071 6.29289L16.7071 3.29289C16.3166 2.90237 15.6834 2.90237 15.2929 3.29289C14.9024 3.68342 14.9024 4.31658 15.2929 4.70711L16.5858 6L7 6C5.34315 6 4 7.34315 4 9V10C4 10.5523 4.44772 11 5 11C5.55228 11 6 10.5523 6 10L6 9C6 8.44772 6.44772 8 7 8L16.5858 8L15.2929 9.29289Z" fill="#34B778"/>
<path fill-rule="evenodd" clip-rule="evenodd" d="M8.70711 14.7071C9.09763 14.3166 9.09763 13.6834 8.70711 13.2929C8.31658 12.9024 7.68342 12.9024 7.29289 13.2929L4.29433 16.2915C4.2902 16.2956 4.28611 16.2997 4.28204 16.3039C4.10747 16.4839 4 16.7294 4 17C4 17.1367 4.02741 17.2669 4.07705 17.3856C4.12583 17.5025 4.19778 17.612 4.29289 17.7071L7.29289 20.7071C7.68342 21.0976 8.31658 21.0976 8.70711 20.7071C9.09763 20.3166 9.09763 19.6834 8.70711 19.2929L7.41421 18L17 18C18.6569 18 20 16.6569 20 15L20 14C20 13.4477 19.5523 13 19 13C18.4477 13 18 13.4477 18 14L18 15C18 15.5523 17.5523 16 17 16L7.41422 16L8.70711 14.7071Z" fill="#CA5757"/>
</svg>
