<svg width="24" height="24" viewBox="0 0 24 24" fill="none" xmlns="http://www.w3.org/2000/svg">
<path fill-rule="evenodd" clip-rule="evenodd" d="M4 8.64094C4 6.5434 5.53785 5 7.4 5C9.2637 5 10.6223 6.60061 11.0484 7.9202C11.137 8.19472 11.3332 8.40455 11.5752 8.51819C11.7066 8.57988 11.8515 8.61322 12.0001 8.61317C12.1487 8.61322 12.2937 8.57988 12.4251 8.51819C12.499 8.48358 12.5671 8.44068 12.6286 8.391C12.775 8.27301 12.8898 8.11247 12.9519 7.9202C13.378 6.60061 14.7365 5 16.6002 5C18.4624 5 20.0002 6.5434 20.0002 8.64094C20.0002 11.2671 18.4161 14.9141 12.0001 18.8338C5.58418 14.9141 4 11.2671 4 8.64094ZM12.0001 21.0002C12.1824 21 12.3622 20.9499 12.5185 20.8553C19.6697 16.6343 22.0002 12.3243 22.0002 8.64094C22.0002 5.54063 19.6661 3 16.6002 3C14.5131 3 12.9598 4.17302 12.0001 5.48269C11.0404 4.17302 9.48717 3 7.4 3C4.33415 3 2 5.54063 2 8.64094C2 12.3243 4.33054 16.6343 11.4817 20.8553C11.6381 20.9499 11.8178 21 12.0001 21.0002Z" fill="currentcolor"/>
</svg>
