<svg width="24" height="24" viewBox="0 0 24 24" fill="none" xmlns="http://www.w3.org/2000/svg">
<path fill-rule="evenodd" clip-rule="evenodd" d="M8.99995 5C8.99995 4.44772 8.55223 4 7.99995 4C7.44767 4 6.99995 4.44772 6.99995 5L6.99995 16.589L5.7541 15.3432C5.36357 14.9527 4.70935 14.9301 4.29286 15.2928C3.87637 15.6556 3.85533 16.2662 4.24586 16.6567L7.24427 19.655C7.42762 19.8663 7.69817 20 7.99995 20C8.2762 20 8.52629 19.888 8.70727 19.7069C8.72446 19.6919 8.74115 19.6763 8.7573 19.6602L11.7573 16.6602C12.146 16.2715 12.1221 15.6608 11.7038 15.2962C11.2856 14.9315 10.6315 14.9509 10.2428 15.3396L8.99995 16.5824L8.99995 5ZM14.9999 19C14.9999 19.5523 15.4477 20 15.9999 20C16.5522 20 16.9999 19.5523 16.9999 19L17 7.41411L18.2441 8.65829C18.6337 9.04789 19.288 9.06894 19.7054 8.70532C20.1228 8.3417 20.1454 7.73109 19.7558 7.34149L16.7558 4.34149C16.7474 4.33313 16.7389 4.32493 16.7303 4.31688C16.5478 4.12187 16.2881 4 16 4C15.7118 4 15.4521 4.12186 15.2697 4.31685C15.261 4.32491 15.2525 4.33312 15.2441 4.34149L12.2441 7.34149C11.8545 7.73109 11.8771 8.3417 12.2945 8.70532C12.7119 9.06894 13.3662 9.04789 13.7558 8.65829L15 7.4141L14.9999 19Z" fill="currentcolor"/>
</svg>
