<svg width="24" height="24" viewBox="0 0 24 24" fill="none" xmlns="http://www.w3.org/2000/svg">
<path fill-rule="evenodd" clip-rule="evenodd" d="M12 5C8.13401 5 5 8.13401 5 12C5 15.866 8.13401 19 12 19C15.866 19 19 15.866 19 12C19 8.13401 15.866 5 12 5ZM3 12C3 7.02944 7.02944 3 12 3C16.9706 3 21 7.02944 21 12C21 16.9706 16.9706 21 12 21C7.02944 21 3 16.9706 3 12ZM13 17C13 17.5523 12.5523 18 12 18C11.4477 18 11 17.5523 11 17C11 16.4477 11.4477 16 12 16C12.5523 16 13 16.4477 13 17ZM14.2796 7.95572C13.6729 7.23569 12.7983 6.97789 12.0187 7.00147C11.2465 7.02482 10.4439 7.32325 9.8681 7.8835C9.30701 8.42944 9.08644 9.03378 9.02238 9.55333C8.99169 9.80226 8.99815 10.0195 9.009 10.1789C9.01337 10.2431 9.019 10.3042 9.02288 10.3461L9.02491 10.3683C9.02709 10.3924 9.02808 10.4056 9.0285 10.4112C9.02859 10.4123 9.02865 10.4132 9.0287 10.4137C9.03492 10.9606 9.48022 11.4021 10.0286 11.4021C10.5809 11.4021 11.0286 10.9544 11.0286 10.4021C11.0286 10.3188 11.021 10.2352 11.0171 10.1918L11.0168 10.188L11.0138 10.1554C11.01 10.1144 11.007 10.0812 11.0044 10.043C10.9983 9.95399 10.9979 9.87475 11.0073 9.79808C11.0236 9.66641 11.0714 9.50316 11.2628 9.31692C11.4395 9.14499 11.747 9.0106 12.0791 9.00056C12.4037 8.99074 12.6276 9.09896 12.7501 9.24441C13.0538 9.60478 13.1016 10.4625 12.2746 11.0271C11.4231 11.6085 11.1127 12.4337 11.0138 13.0546C10.9646 13.3632 10.9644 13.6352 10.9761 13.831C10.982 13.9299 10.9911 14.0124 10.9995 14.074C11.0037 14.1048 11.0077 14.1307 11.0112 14.151L11.0158 14.1774L11.0177 14.1874L11.0185 14.1916L11.0189 14.1934L11.0192 14.1952C11.1271 14.7369 11.6536 15.0885 12.1952 14.9807C12.733 14.8737 13.0835 14.354 12.983 13.8165L12.9812 13.8039C12.9788 13.7867 12.9751 13.7549 12.9725 13.712C12.9673 13.6241 12.9677 13.502 12.9889 13.3691C13.0307 13.1067 13.1395 12.8583 13.4024 12.6788C15.091 11.5258 15.4344 9.32632 14.2796 7.95572Z" fill="currentcolor"/>
</svg>
