<svg width="24" height="24" viewBox="0 0 24 24" fill="none" xmlns="http://www.w3.org/2000/svg">
<path fill-rule="evenodd" clip-rule="evenodd" d="M7 2C5.89543 2 5 2.89543 5 4V16C5 17.1046 5.89543 18 7 18H8V8C8 6.34315 9.34315 5 11 5H15V4C15 2.89543 14.1046 2 13 2H7ZM15 6H11C9.89543 6 9 6.89543 9 8V18H13C14.1046 18 15 17.1046 15 16V6Z" fill="currentcolor"/>
<path d="M9 8C9 6.89543 9.89543 6 11 6H17C18.1046 6 19 6.89543 19 8V20C19 21.1046 18.1046 22 17 22H11C9.89543 22 9 21.1046 9 20V8Z" fill="currentcolor"/>
</svg>
