<svg width="24" height="24" viewBox="0 0 24 24" fill="none" xmlns="http://www.w3.org/2000/svg">
<path fill-rule="evenodd" clip-rule="evenodd" d="M4 4C2.89543 4 2 4.89543 2 6V15C2 16.1046 2.89543 17 4 17H11V19H9C8.44772 19 8 19.4477 8 20C8 20.5523 8.44772 21 9 21H15C15.5523 21 16 20.5523 16 20C16 19.4477 15.5523 19 15 19H13V17H20C21.1046 17 22 16.1046 22 15V6C22 4.89543 21.1046 4 20 4H4ZM4 6L20 6V15H4V6ZM6.59116 13L5 8H6.26L6.89001 10.3313C6.97078 10.6022 7.04078 10.8681 7.10001 11.1288C7.16462 11.3896 7.23731 11.658 7.31808 11.934H7.35039C7.42578 11.658 7.49578 11.3896 7.56039 11.1288C7.62501 10.8681 7.69501 10.6022 7.77039 10.3313L8.39232 8H9.60386L8.02078 13H6.59116ZM11.3411 10.4693L11.2119 10.9294H12.3346L12.2134 10.4693C12.1434 10.2188 12.0707 9.95297 11.9953 9.67178C11.9253 9.39059 11.8553 9.11963 11.7853 8.8589H11.753C11.6884 9.12474 11.6211 9.39826 11.5511 9.67945C11.4865 9.95552 11.4165 10.2188 11.3411 10.4693ZM9.43494 13L11.0826 8H12.5123L14.16 13H12.8999L12.5769 11.8113H10.9696L10.6465 13H9.43494ZM14.8161 8V13H16.0035V11.1979H16.6577L17.6673 13H19L17.8046 10.9985C18.09 10.8809 18.3162 10.7045 18.4831 10.4693C18.6554 10.229 18.7415 9.92485 18.7415 9.55675C18.7415 9.15798 18.65 8.84611 18.4669 8.62117C18.2838 8.39622 18.0388 8.23773 17.7319 8.14571C17.425 8.04857 17.0858 8 16.7142 8H14.8161ZM16.6173 10.3006H16.0035V8.89724H16.6173C16.9296 8.89724 17.1665 8.94581 17.3281 9.04294C17.495 9.14008 17.5785 9.31135 17.5785 9.55675C17.5785 9.80215 17.495 9.98875 17.3281 10.1166C17.1665 10.2393 16.9296 10.3006 16.6173 10.3006Z" fill="currentcolor"/>
</svg>
