<svg width="24" height="24" viewBox="0 0 24 24" fill="none" xmlns="http://www.w3.org/2000/svg">
<path fill-rule="evenodd" clip-rule="evenodd" d="M7.1732 12.9139C7.18709 12.6687 7.29078 12.4371 7.4645 12.2634L17.0208 2.70705C18.1924 1.53548 20.0919 1.53547 21.2635 2.70705C22.435 3.87862 22.435 5.77812 21.2635 6.94969L11.7071 16.506C11.5359 16.6772 11.3085 16.7805 11.0669 16.7967L8.0669 16.9977C7.78086 17.0169 7.50035 16.9124 7.29659 16.7107C7.09283 16.5091 6.98542 16.2296 7.00163 15.9434L7.1732 12.9139ZM9.14843 13.4079L9.06243 14.9265L10.5585 14.8263L17.7279 7.65683L16.3137 6.24266L16.3137 6.24261L9.14843 13.4079ZM19.8493 5.53548L19.1421 6.24261L17.728 4.82845L17.7279 4.8284L18.435 4.12126C18.8256 3.73074 19.4587 3.73074 19.8493 4.12126C20.2398 4.51179 20.2398 5.14495 19.8493 5.53548ZM4 2.99997C2.89543 2.99997 2 3.8954 2 4.99997V19C2 20.1045 2.89543 21 4 21H19C20.1046 21 21 20.1045 21 19V12C21 11.4477 20.5523 11 20 11C19.4477 11 19 11.4477 19 12V19H4V4.99997H12C12.5523 4.99997 13 4.55225 13 3.99997C13 3.44768 12.5523 2.99997 12 2.99997H4Z" fill="currentcolor"/>
</svg>
