<svg width="24" height="24" viewBox="0 0 24 24" fill="none" xmlns="http://www.w3.org/2000/svg">
<path fill-rule="evenodd" clip-rule="evenodd" d="M8 5C8 3.34315 9.34315 2 11 2H13C14.6569 2 16 3.34315 16 5H17.9192H20C20.5523 5 21 5.44772 21 6C21 6.55228 20.5523 7 20 7H19.9193C19.9193 7.05131 19.9172 7.10303 19.9132 7.15509L18.9738 19.2326C18.8523 20.7945 17.5495 22 15.9829 22H8.01717C6.45054 22 5.14768 20.7945 5.0262 19.2326L4.08683 7.15509C4.08278 7.10303 4.08076 7.05131 4.08069 7H4C3.44772 7 3 6.55228 3 6C3 5.44772 3.44772 5 4 5H6.08081H8ZM10 5H14C14 4.44772 13.5523 4 13 4H11C10.4477 4 10 4.44772 10 5ZM9 7L6.08081 7L7.02017 19.0775C7.06067 19.5982 7.49495 20 8.01717 20H15.9829C16.5051 20 16.9394 19.5982 16.9798 19.0775L17.9192 7H15H9ZM10 18C9.44772 18 9 17.5523 9 17L9 9C9 8.44771 9.44771 8 10 8C10.5523 8 11 8.44771 11 9L11 17C11 17.5523 10.5523 18 10 18ZM13 17C13 17.5523 13.4477 18 14 18C14.5523 18 15 17.5523 15 17L15 9C15 8.44771 14.5523 8 14 8C13.4477 8 13 8.44771 13 9L13 17Z" fill="currentcolor"/>
</svg>
