<svg width="24" height="24" viewBox="0 0 24 24" fill="none" xmlns="http://www.w3.org/2000/svg">
<path fill-rule="evenodd" clip-rule="evenodd" d="M13.8031 7.07196C14.7525 6.59851 15.4979 5.86959 16.1073 4.94927C16.1209 4.94926 16.1376 4.95125 16.1554 4.95652C16.1777 4.96312 16.1952 4.97291 16.2073 4.98257C16.3123 5.06655 16.4945 5.19662 16.6948 5.33957L16.6948 5.33963C16.7611 5.38693 16.8293 5.43563 16.8974 5.48455C17.1936 5.69747 17.546 5.95544 17.9046 6.24009C18.658 6.8381 19.3112 7.45669 19.5908 7.94619C19.9133 8.51083 20.0892 9.09948 20.0679 9.61213C20.0488 10.0691 19.8747 10.5177 19.3804 10.9193L5.8854 18.7317L5.88249 18.7334C5.27266 19.0893 4.49288 18.8781 4.14079 18.2617C3.85516 17.7616 3.88945 17.4017 4.06978 17.0095C4.28738 16.5362 4.69517 16.0715 5.23975 15.451L5.23976 15.451L5.29673 15.3861C5.42854 15.2359 5.55462 15.0954 5.67586 14.9627L6.5353 15.4644C6.99692 15.7338 7.58722 15.5739 7.85378 15.1073C8.12033 14.6407 7.9622 14.044 7.50057 13.7746L7.05674 13.5156C7.33518 13.2214 7.6054 12.9219 7.88912 12.5696L8.67401 13.0271C9.13579 13.2962 9.726 13.136 9.99228 12.6693C10.2586 12.2025 10.1001 11.6059 9.6383 11.3368L9.01428 10.973C9.2111 10.6509 9.38874 10.3247 9.54964 10.009L10.8919 10.6314C11.3764 10.8561 11.9494 10.6412 12.1716 10.1514C12.3939 9.66171 12.1813 9.08258 11.6968 8.85791L10.3848 8.24956C10.5188 7.97601 10.6216 7.79266 10.7055 7.67548C11.8669 7.71132 12.8958 7.52441 13.8031 7.07196ZM10.782 7.58239C10.782 7.58255 10.7801 7.58442 10.7764 7.58751C10.7801 7.58376 10.782 7.58222 10.782 7.58239ZM17.4048 3.45219C16.6175 2.8228 15.2211 2.765 14.5253 3.8303C14.0562 4.54843 13.5433 5.02578 12.949 5.32213C12.3528 5.61945 11.6018 5.77087 10.6005 5.71834C9.91831 5.67719 9.46589 6.11381 9.22451 6.42099C8.97368 6.7402 8.76281 7.15524 8.5799 7.53915C8.49465 7.71807 8.41029 7.90107 8.3246 8.08697L8.3246 8.08698C8.01239 8.76427 7.68245 9.48003 7.22703 10.1772C6.45919 11.3527 6.01076 11.8109 5.34113 12.495C4.95378 12.8907 4.49243 13.362 3.85243 14.0915C3.81316 14.1363 3.77283 14.182 3.73167 14.2287C3.25292 14.7717 2.66173 15.4422 2.3192 16.1872C1.90245 17.0937 1.83648 18.1298 2.46905 19.2373C3.27229 20.6436 4.96097 21.2109 6.41229 20.6353C6.41788 20.646 6.42369 20.6566 6.42972 20.6671L6.91231 21.512C7.17883 21.9787 7.76913 22.1385 8.23077 21.8691C8.6924 21.5997 8.85057 21.0031 8.58405 20.5364L8.10396 19.6959L8.94147 19.2111L9.41988 20.0486C9.6864 20.5153 10.2767 20.6751 10.7383 20.4057C11.2 20.1363 11.3581 19.5397 11.0916 19.073L10.6166 18.2413L11.4541 17.7565L11.9274 18.5852C12.194 19.0519 12.7843 19.2117 13.2459 18.9423C13.7075 18.6729 13.8657 18.0763 13.5992 17.6096L13.1292 16.7868L16.4794 14.8473L16.9427 15.6584C17.2092 16.1251 17.7995 16.2849 18.2612 16.0155C18.7228 15.7461 18.881 15.1495 18.6144 14.6828L18.1545 13.8775L18.9921 13.3926L19.4504 14.195C19.7169 14.6617 20.3072 14.8215 20.7689 14.5521C21.2305 14.2827 21.3887 13.6861 21.1221 13.2194L20.649 12.3911C21.5455 11.6365 21.9555 10.679 21.9965 9.69426C22.0379 8.70071 21.7043 7.74409 21.2625 6.97059C20.7778 6.12193 19.8487 5.30233 19.0968 4.70553C18.7028 4.39278 18.3219 4.11418 18.0159 3.89432C17.9147 3.82156 17.8262 3.75835 17.7496 3.70364L17.7495 3.70357C17.5776 3.58086 17.4658 3.50097 17.4048 3.45219Z" fill="currentcolor"/>
</svg>
