<svg width="24" height="24" viewBox="0 0 24 24" fill="none" xmlns="http://www.w3.org/2000/svg">
<path fill-rule="evenodd" clip-rule="evenodd" d="M11.0455 2C9.99112 2 9.13638 2.89543 9.13638 4V5.0308C8.5976 5.25758 8.0905 5.54651 7.62395 5.88896L6.81853 5.40181C5.90542 4.84952 4.73783 5.17727 4.21064 6.13386L3.25609 7.86591C2.72891 8.82249 3.04176 10.0457 3.95487 10.598L4.60782 10.9929C4.56429 11.3227 4.54186 11.6589 4.54186 12.0001C4.54186 12.3411 4.56428 12.6772 4.60778 13.0069L3.95488 13.4018C3.04177 13.9541 2.72892 15.1773 3.2561 16.1339L4.21066 17.8659C4.73784 18.8225 5.90543 19.1502 6.81854 18.598L7.6237 18.111C8.09032 18.4535 8.5975 18.7425 9.13638 18.9693V20C9.13638 21.1046 9.99112 22 11.0455 22H12.9546C14.009 22 14.8637 21.1046 14.8637 20V18.9685C15.4022 18.7416 15.909 18.4527 16.3753 18.1103L17.1815 18.598C18.0946 19.1502 19.2622 18.8225 19.7893 17.8659L20.7439 16.1339C21.2711 15.1773 20.9582 13.9541 20.0451 13.4018L19.3905 13.0059C19.4339 12.6765 19.4563 12.3407 19.4563 12.0001C19.4563 11.6593 19.4339 11.3234 19.3904 10.9939L20.0451 10.598C20.9582 10.0457 21.2711 8.82249 20.7439 7.86591L19.7894 6.13386C19.2622 5.17727 18.0946 4.84952 17.1815 5.40181L16.375 5.88959C15.9088 5.54728 15.4021 5.25843 14.8637 5.03164V4C14.8637 2.89543 14.009 2 12.9546 2H11.0455ZM11.0455 4H12.9546V5.74157C12.9546 6.18494 13.2333 6.57537 13.6392 6.70075C14.4049 6.93723 15.0987 7.33492 15.682 7.8529C15.9895 8.12594 16.4275 8.16724 16.7765 7.95612L18.136 7.13386L19.0906 8.86591L17.8489 9.61694C17.4807 9.8396 17.2975 10.2904 17.3994 10.7228C17.4959 11.1319 17.5471 11.5594 17.5471 12.0001C17.5471 12.4406 17.4959 12.868 17.3995 13.2771C17.2976 13.7094 17.4808 14.1602 17.8489 14.3829L19.0906 15.1339L18.136 16.8659L16.7768 16.0438C16.4277 15.8327 15.9897 15.874 15.6822 16.147C15.0989 16.6651 14.405 17.0629 13.6392 17.2994C13.2333 17.4247 12.9546 17.8152 12.9546 18.2585V20H11.0455V18.2592C11.0455 17.8157 10.7667 17.4252 10.3606 17.2999C9.59446 17.0635 8.90016 16.6658 8.31655 16.1476C8.0091 15.8746 7.57113 15.8334 7.22211 16.0445L5.86399 16.8659L4.90944 15.1339L6.14941 14.3839C6.51757 14.1612 6.70079 13.7103 6.59881 13.2779C6.50224 12.8686 6.45096 12.4409 6.45096 12.0001C6.45096 11.5591 6.50226 11.1314 6.59887 10.7219C6.70088 10.2896 6.51765 9.83863 6.14948 9.61594L4.90942 8.86591L5.86398 7.13386L7.22233 7.95544C7.57134 8.16653 8.00929 8.12527 8.31674 7.85232C8.90031 7.33424 9.59454 6.93656 10.3606 6.70023C10.7667 6.57495 11.0455 6.18444 11.0455 5.74096V4ZM10 12C10 10.8954 10.8954 10 12 10C13.1046 10 14 10.8954 14 12C14 13.1046 13.1046 14 12 14C10.8954 14 10 13.1046 10 12ZM12 8C9.79086 8 8 9.79086 8 12C8 14.2091 9.79086 16 12 16C14.2091 16 16 14.2091 16 12C16 9.79086 14.2091 8 12 8Z" fill="currentcolor"/>
</svg>
