<svg width="24" height="24" viewBox="0 0 24 24" fill="none" xmlns="http://www.w3.org/2000/svg">
<path fill-rule="evenodd" clip-rule="evenodd" d="M5.54869 9.27861C6.48627 7.05871 8.5362 5.42331 11 5.07089V7.48543L7.66407 9.86824L5.54869 9.27861ZM5.04363 11.2141C5.0148 11.4721 5 11.7343 5 12C5 13.9357 5.78567 15.6878 7.0555 16.955L8.3831 15.2955L7.26448 11.8331L5.04363 11.2141ZM11.0205 16.5C11.079 15.7913 11.2607 15.1174 11.544 14.5H10.2279L9.17651 11.2457L12.0001 9.2289L14.8236 11.2457L14.7639 11.4305C15.455 11.1528 16.2096 11 17 11C17.6165 11 18.2114 11.093 18.7712 11.2657L18.9564 11.2141C18.9607 11.2528 18.9647 11.2915 18.9684 11.3303C19.7198 11.5912 20.4034 11.9972 20.9855 12.5149C20.9951 12.3445 21 12.1728 21 12C21 7.02944 16.9706 3 12 3C7.02944 3 3 7.02944 3 12C3 16.9706 7.02944 21 12 21C12.1728 21 12.3445 20.9951 12.5149 20.9855C11.9972 20.4034 11.5912 19.7198 11.3303 18.9684C10.37 18.8772 9.46628 18.5921 8.65868 18.1526L9.98074 16.5H11.0205ZM18.4513 9.27865L16.3361 9.86823L13 7.48533V5.07089C15.4638 5.42331 17.5138 7.05872 18.4513 9.27865Z" fill="currentcolor"/>
<path fill-rule="evenodd" clip-rule="evenodd" d="M23 17C23 20.3137 20.3137 23 17 23C13.6863 23 11 20.3137 11 17C11 13.6863 13.6863 11 17 11C20.3137 11 23 13.6863 23 17ZM14.4697 14.4697C14.7626 14.1768 15.2374 14.1768 15.5303 14.4697L17 15.9393L18.4697 14.4697C18.7626 14.1768 19.2374 14.1768 19.5303 14.4697C19.8232 14.7626 19.8232 15.2374 19.5303 15.5303L18.0607 17L19.5303 18.4697C19.8232 18.7626 19.8232 19.2374 19.5303 19.5303C19.2374 19.8232 18.7626 19.8232 18.4697 19.5303L17 18.0607L15.5303 19.5303C15.2374 19.8232 14.7626 19.8232 14.4697 19.5303C14.1768 19.2374 14.1768 18.7626 14.4697 18.4697L15.9393 17L14.4697 15.5303C14.1768 15.2374 14.1768 14.7626 14.4697 14.4697Z" fill="#3E4442"/>
</svg>
