<svg width="24" height="24" viewBox="0 0 24 24" fill="none" xmlns="http://www.w3.org/2000/svg">
<path fill-rule="evenodd" clip-rule="evenodd" d="M18.2601 5.32733C18.6316 4.91868 19.264 4.88856 19.6727 5.26007C20.0813 5.63157 20.1114 6.26402 19.7399 6.67268L9.75019 17.6614C9.73334 17.6805 9.71566 17.699 9.69713 17.717C9.50152 17.9075 9.24496 18.0028 8.98842 18C8.84179 17.9983 8.69517 17.9646 8.55995 17.8983C8.46339 17.851 8.37313 17.7874 8.29345 17.7077C8.27574 17.6901 8.25882 17.6719 8.2427 17.6532L4.2526 13.1644C3.88568 12.7516 3.92286 12.1195 4.33565 11.7526C4.74843 11.3857 5.3805 11.4229 5.74742 11.8356L9.00836 15.5042L18.2601 5.32733Z" fill="currentcolor"/>
</svg>
