<svg width="24" height="24" viewBox="0 0 24 24" fill="none" xmlns="http://www.w3.org/2000/svg">
<path fill-rule="evenodd" clip-rule="evenodd" d="M19 8C19 7.44772 19.4477 7 20 7C20.5523 7 21 7.44772 21 8V10C21 11.6569 19.6569 13 18 13H6.41421L8.70711 15.2929C9.09763 15.6834 9.09763 16.3166 8.70711 16.7071C8.31658 17.0976 7.68342 17.0976 7.29289 16.7071L3.29289 12.7071C3.10536 12.5196 3 12.2652 3 12C3 11.7348 3.10536 11.4804 3.29289 11.2929L7.29289 7.29289C7.68342 6.90237 8.31658 6.90237 8.70711 7.29289C9.09763 7.68342 9.09763 8.31658 8.70711 8.70711L6.41421 11H18C18.5523 11 19 10.5523 19 10V8Z" fill="currentcolor"/>
</svg>
