<svg width="24" height="24" viewBox="0 0 24 24" fill="none" xmlns="http://www.w3.org/2000/svg">
<path fill-rule="evenodd" clip-rule="evenodd" d="M5 4C3.34315 4 2 5.34315 2 7V17C2 17.5523 2.44772 18 3 18C3.55228 18 4 17.5523 4 17V7C4 6.44772 4.44772 6 5 6H19C19.5523 6 20 6.44772 20 7V17C20 17.5523 20.4477 18 21 18C21.5523 18 22 17.5523 22 17V7C22 5.34315 20.6569 4 19 4H5ZM7.51666 12.784C8.19131 11.4217 9.46857 10.4109 11 10.1V11.9853L9.21802 13.2582L7.51666 12.784ZM7.0078 14.7184C7.00262 14.8116 7 14.9055 7 15C7 16.2824 7.48277 17.452 8.27647 18.337C8.31012 18.2629 8.35343 18.1918 8.40659 18.1253L9.32048 16.983L8.7453 15.2027L7.0078 14.7184ZM9.83804 19.5097C10.4924 19.824 11.2256 20 12 20C12.7744 20 13.5076 19.824 14.162 19.5097C14.1152 19.4696 14.0716 19.4246 14.0317 19.3747L13.0819 18.1875H10.9181L9.96833 19.3747C9.92845 19.4246 9.88477 19.4696 9.83804 19.5097ZM17 15C17 16.2824 16.5172 17.452 15.7235 18.337C15.6899 18.2629 15.6466 18.1918 15.5934 18.1253L14.6794 16.9829L15.2546 15.2027L16.9922 14.7184C16.9974 14.8116 17 14.9055 17 15ZM16.4833 12.784L14.7819 13.2582L13 11.9854V10.1C14.5314 10.4109 15.8087 11.4217 16.4833 12.784ZM12 8C8.13401 8 5 11.134 5 15C5 18.866 8.13401 22 12 22C15.866 22 19 18.866 19 15C19 11.134 15.866 8 12 8ZM11.1653 16.1875L10.6764 14.6743L11.9999 13.7289L13.3235 14.6743L12.8346 16.1875H11.1653Z" fill="currentcolor"/>
</svg>
