<svg width="24" height="24" viewBox="0 0 24 24" fill="none" xmlns="http://www.w3.org/2000/svg">
<path fill-rule="evenodd" clip-rule="evenodd" d="M5 4C3.34315 4 2 5.34315 2 7V17C2 17.5523 2.44772 18 3 18C3.55228 18 4 17.5523 4 17V7C4 6.44772 4.44772 6 5 6H19C19.5523 6 20 6.44772 20 7V17C20 17.5523 20.4477 18 21 18C21.5523 18 22 17.5523 22 17V7C22 5.34315 20.6569 4 19 4H5ZM7 15C7 12.2386 9.23858 10 12 10C14.7614 10 17 12.2386 17 15C17 17.7614 14.7614 20 12 20C9.23858 20 7 17.7614 7 15ZM12 8C8.13401 8 5 11.134 5 15C5 18.866 8.13401 22 12 22C15.866 22 19 18.866 19 15C19 11.134 15.866 8 12 8ZM10.7071 12.2929C10.3166 11.9024 9.68342 11.9024 9.29289 12.2929C8.90237 12.6834 8.90237 13.3166 9.29289 13.7071L10.5858 15L9.29289 16.2929C8.90237 16.6834 8.90237 17.3166 9.29289 17.7071C9.68342 18.0976 10.3166 18.0976 10.7071 17.7071L12 16.4142L13.2929 17.7071C13.6834 18.0976 14.3166 18.0976 14.7071 17.7071C15.0976 17.3166 15.0976 16.6834 14.7071 16.2929L13.4142 15L14.7071 13.7071C15.0976 13.3166 15.0976 12.6834 14.7071 12.2929C14.3166 11.9024 13.6834 11.9024 13.2929 12.2929L12 13.5858L10.7071 12.2929Z" fill="currentcolor"/>
</svg>
