<svg width="24" height="24" viewBox="0 0 24 24" fill="none" xmlns="http://www.w3.org/2000/svg">
<path fill-rule="evenodd" clip-rule="evenodd" d="M5 4C3.34315 4 2 5.34315 2 7V17C2 17.5523 2.44772 18 3 18C3.55228 18 4 17.5523 4 17V7C4 6.44772 4.44772 6 5 6H19C19.5523 6 20 6.44772 20 7V17C20 17.5523 20.4477 18 21 18C21.5523 18 22 17.5523 22 17V7C22 5.34315 20.6569 4 19 4H5ZM12 10C9.23858 10 7 12.2386 7 15C7 17.7614 9.23858 20 12 20C14.7614 20 17 17.7614 17 15C17 12.2386 14.7614 10 12 10ZM5 15C5 11.134 8.13401 8 12 8C15.866 8 19 11.134 19 15C19 18.866 15.866 22 12 22C8.13401 22 5 18.866 5 15ZM13.7929 12.7929C14.1834 12.4024 14.8166 12.4024 15.2071 12.7929C15.5976 13.1834 15.5976 13.8166 15.2071 14.2071L11.7071 17.7071C11.3166 18.0976 10.6834 18.0976 10.2929 17.7071L8.79289 16.2071C8.40237 15.8166 8.40237 15.1834 8.79289 14.7929C9.18342 14.4024 9.81658 14.4024 10.2071 14.7929L11 15.5858L13.7929 12.7929Z" fill="currentcolor"/>
</svg>
