<svg width="24" height="24" viewBox="0 0 24 24" fill="none" xmlns="http://www.w3.org/2000/svg">
<path fill-rule="evenodd" clip-rule="evenodd" d="M22 8C22 10.2458 20.7661 12.2034 18.9393 13.232C19.0111 13.6475 19.1434 14.0508 19.3325 14.4289L19.5489 14.8617C19.8456 15.455 20 16.1093 20 16.7726C20 18.0028 19.0028 19 17.7726 19H15C15 20.6569 13.6569 22 12 22C10.3431 22 9 20.6569 9 19L6.22736 19C4.99722 19 4 18.0028 4 16.7726C4 16.1093 4.15445 15.455 4.45111 14.8617L4.66751 14.4289C4.90271 13.9585 5.0501 13.4491 5.10243 12.9258L5.50744 8.87568C5.841 5.54012 8.64781 3 12 3C12.2145 3 12.4268 3.01041 12.6364 3.03076C13.5958 2.38012 14.7535 2 16 2C19.3137 2 22 4.68629 22 8ZM11 19C11 19.5523 11.4477 20 12 20C12.5523 20 13 19.5523 13 19H11ZM10 8C10 6.98503 10.252 6.02892 10.6969 5.19084C8.98331 5.70576 7.68386 7.21123 7.49752 9.07469L7.0925 13.1248C7.01596 13.8903 6.80038 14.6353 6.45637 15.3233L6.23996 15.7561C6.08216 16.0718 6 16.4198 6 16.7726C6 16.8982 6.10179 17 6.22736 17L17.7726 17C17.8982 17 18 16.8982 18 16.7726C18 16.4198 17.9178 16.0718 17.76 15.7561L17.5436 15.3233C17.3187 14.8734 17.1487 14.3992 17.0365 13.9108C16.6998 13.9694 16.3535 14 16 14C12.6863 14 10 11.3137 10 8ZM14.5303 5.46967C14.2374 5.17678 13.7626 5.17678 13.4697 5.46967C13.1768 5.76256 13.1768 6.23744 13.4697 6.53033L14.9393 8L13.4697 9.46967C13.1768 9.76256 13.1768 10.2374 13.4697 10.5303C13.7626 10.8232 14.2374 10.8232 14.5303 10.5303L16 9.06066L17.4697 10.5303C17.7626 10.8232 18.2374 10.8232 18.5303 10.5303C18.8232 10.2374 18.8232 9.76256 18.5303 9.46967L17.0607 8L18.5303 6.53033C18.8232 6.23744 18.8232 5.76256 18.5303 5.46967C18.2374 5.17678 17.7626 5.17678 17.4697 5.46967L16 6.93934L14.5303 5.46967Z" fill="currentcolor"/>
</svg>
