<svg width="24" height="24" viewBox="0 0 24 24" fill="none" xmlns="http://www.w3.org/2000/svg">
<path fill-rule="evenodd" clip-rule="evenodd" d="M20.2929 2.29289C20.6834 1.90237 21.3166 1.90237 21.7071 2.29289C22.0976 2.68342 22.0976 3.31658 21.7071 3.70711L18.1295 7.28472C18.3131 7.78766 18.4371 8.32066 18.4926 8.87568L18.8976 12.9258C18.9499 13.4491 19.0973 13.9585 19.3325 14.4289L19.5489 14.8617C19.8456 15.455 20 16.1093 20 16.7726C20 18.0028 19.0028 19 17.7726 19H15C15 20.6569 13.6569 22 12 22C10.3431 22 9 20.6569 9 19L6.41422 19L3.70711 21.7071C3.31658 22.0976 2.68342 22.0976 2.29289 21.7071C1.90237 21.3166 1.90237 20.6834 2.29289 20.2929L4.45887 18.1269C4.17106 17.7516 4 17.2821 4 16.7726C4 16.1093 4.15445 15.455 4.45111 14.8617L4.66751 14.4289C4.90271 13.9585 5.0501 13.4491 5.10243 12.9258L5.50744 8.87568C5.841 5.54012 8.64781 3 12 3C14.0595 3 15.9132 3.95882 17.1139 5.47185L20.2929 2.29289ZM15.6861 6.89972C14.8617 5.74393 13.5107 5 12 5C9.67531 5 7.72883 6.76153 7.49752 9.07469L7.0925 13.1248C7.01596 13.8903 6.80038 14.6353 6.45637 15.3233L6.23996 15.7561C6.11136 16.0133 6.033 16.2921 6.0084 16.5774L15.6861 6.89972ZM8.41422 17L17.7726 17C17.8982 17 18 16.8982 18 16.7726C18 16.4198 17.9178 16.0718 17.76 15.7561L17.5436 15.3233C17.1996 14.6353 16.984 13.8903 16.9075 13.1248L16.5025 9.07469C16.4976 9.02577 16.4919 8.97711 16.4855 8.9287L8.41422 17ZM12 20C11.4477 20 11 19.5523 11 19H13C13 19.5523 12.5523 20 12 20Z" fill="currentcolor"/>
</svg>
