<svg width="24" height="24" viewBox="0 0 24 24" fill="none" xmlns="http://www.w3.org/2000/svg">
<path fill-rule="evenodd" clip-rule="evenodd" d="M12 3C12.5523 3 13 3.44772 13 4L13 13.5859L15.2929 11.2929C15.6835 10.9024 16.3166 10.9024 16.7072 11.2929C17.0977 11.6835 17.0977 12.3166 16.7072 12.7071L12.7071 16.7072C12.3166 17.0977 11.6834 17.0977 11.2929 16.7072L7.29284 12.7071C6.90232 12.3166 6.90232 11.6835 7.29284 11.2929C7.68337 10.9024 8.31653 10.9024 8.70706 11.2929L11 13.5859L11 4C11 3.44772 11.4477 3 12 3ZM20 21C20.5523 21 21 20.5523 21 20V17C21 16.4477 20.5523 16 20 16C19.4477 16 19 16.4477 19 17V19H5V17C5 16.4477 4.55228 16 4 16C3.44772 16 3 16.4477 3 17V20C3 20.5523 3.44772 21 4 21H20Z" fill="currentcolor"/>
</svg>
