<svg width="24" height="24" viewBox="0 0 24 24" fill="none" xmlns="http://www.w3.org/2000/svg">
<path fill-rule="evenodd" clip-rule="evenodd" d="M15 2C15 2.55228 14.5523 3 14 3H13V4C13 4.01838 12.9995 4.03663 12.9985 4.05477C14.455 4.21553 15.8069 4.72387 16.9692 5.495L18.2929 4.17131C18.6834 3.78079 19.3166 3.78079 19.7071 4.17131C20.0976 4.56184 20.0976 5.195 19.7071 5.58552L18.5086 6.78401C20.0521 8.39968 21 10.5891 21 13C21 17.9706 16.9706 22 12 22C7.02944 22 3 17.9706 3 13C3 8.36694 6.50082 4.55154 11.0015 4.05477C11.0005 4.03663 11 4.01838 11 4V3L10 3C9.44772 3 9 2.55228 9 2C9 1.44772 9.44772 1 10 1H14C14.5523 1 15 1.44772 15 2ZM5 13C5 9.13401 8.13401 6 12 6C15.866 6 19 9.13401 19 13C19 16.866 15.866 20 12 20C8.13401 20 5 16.866 5 13ZM12 8C11.4477 8 11 8.44772 11 9V13C11 13.5523 11.4477 14 12 14H16C16.5523 14 17 13.5523 17 13C17 10.2386 14.7614 8 12 8Z" fill="currentcolor"/>
</svg>
