<svg width="24" height="24" viewBox="0 0 24 24" fill="none" xmlns="http://www.w3.org/2000/svg">
<path fill-rule="evenodd" clip-rule="evenodd" d="M14 3C14.5523 3 15 2.55228 15 2C15 1.44772 14.5523 1 14 1H10C9.44772 1 9 1.44772 9 2C9 2.55228 9.44772 3 10 3L11 3V4C11 4.01838 11.0005 4.03663 11.0015 4.05477C6.50081 4.55154 3 8.36694 3 13C3 17.9706 7.02944 22 12 22C16.9706 22 21 17.9706 21 13C21 10.5891 20.0521 8.39968 18.5086 6.78401L19.7071 5.58552C20.0976 5.195 20.0976 4.56184 19.7071 4.17131C19.3166 3.78079 18.6834 3.78079 18.2929 4.17131L16.9692 5.495C15.8069 4.72387 14.455 4.21553 12.9985 4.05477C12.9995 4.03664 13 4.01838 13 4V3H14ZM5 13C5 9.13401 8.13401 6 12 6C15.866 6 19 9.13401 19 13C19 16.866 15.866 20 12 20C8.13401 20 5 16.866 5 13ZM7 13C7 10.2386 9.23858 8 12 8C14.7614 8 17 10.2386 17 13C17 15.7614 14.7614 18 12 18C9.23858 18 7 15.7614 7 13Z" fill="currentcolor"/>
</svg>
