<svg width="174" height="92" viewBox="0 0 174 92" fill="none" xmlns="http://www.w3.org/2000/svg">
<path d="M173 0L173 68C173 72.4183 169.418 76 165 76L9.00001 76C4.58173 76 1.00001 72.4183 1.00001 68L1 1.4953e-05" stroke="currentcolor" stroke-width="2"/>
<path d="M127 0L127 11C127 13.7614 124.755 16 121.993 16C95.4321 16 78.5679 16 52.0068 16C49.2454 16 47 13.7614 47 11L47 6.95491e-06" stroke="currentcolor" stroke-width="2"/>
<path d="M112 75C112 83.8365 100.807 91 87 91C73.1929 91 62 83.8366 62 75" stroke="currentcolor" stroke-width="2"/>
</svg>
