<svg width="16" height="17" viewBox="0 0 16 17" fill="none" xmlns="http://www.w3.org/2000/svg">
<path d="M8.66663 5.16699H7.33329V7.83366H4.66663V9.16699H7.33329V11.8337H8.66663V9.16699H11.3333V7.83366H8.66663V5.16699Z" fill="#D26D6D"/>
<path fill-rule="evenodd" clip-rule="evenodd" d="M1.33331 8.50016C1.33331 4.82016 4.31998 1.8335 7.99998 1.8335C11.68 1.8335 14.6666 4.82016 14.6666 8.50016C14.6666 12.1802 11.68 15.1668 7.99998 15.1668C4.31998 15.1668 1.33331 12.1802 1.33331 8.50016ZM2.66665 8.50016C2.66665 11.4402 5.05998 13.8335 7.99998 13.8335C10.94 13.8335 13.3333 11.4402 13.3333 8.50016C13.3333 5.56016 10.94 3.16683 7.99998 3.16683C5.05998 3.16683 2.66665 5.56016 2.66665 8.50016Z" fill="#C4C4C4"/>
</svg>
