<svg width="150" height="150" viewBox="0 0 150 150" fill="none" xmlns="http://www.w3.org/2000/svg">
<path d="M86.6773 24.3175C58.8247 17.9172 30.6685 35.465 24.2639 63.3032C22.6071 70.794 22.7042 78.1781 23.8324 85.1477C23.8537 85.4983 23.8751 85.8489 23.8751 85.8489C28.2053 104.94 42.9102 120.938 63.2681 125.682C91.1207 132.083 119.277 114.535 125.681 86.6968C132.086 58.8586 114.53 30.7178 86.6773 24.3175ZM113.356 63.5165C114.707 68.3611 115.357 73.2483 114.954 78.1995L109.946 71.114L113.356 63.5165ZM110.474 56.6536L104.906 69.3089L92.0123 71.5006L90.6092 71.5859L84.942 65.2442L80.7633 60.2197L82.9724 50.232L83.7688 45.9607L99.0332 42.2173C103.892 46.8485 108.049 51.5225 110.474 56.6536ZM86.6129 75.3479L80.6943 88.0246L64.2592 84.0972L64.29 78.8167L64.4584 70.0088L77.5113 64.6403L81.6686 69.3143L86.6129 75.3479ZM83.8519 35.7503C87.073 36.6102 89.9434 37.4914 92.8564 39.0738L82.4392 41.4667L74.2738 34.5732C77.4522 34.7318 80.6521 35.2411 83.8519 35.7503ZM66.9497 35.7223L79.1658 45.5367L78.3694 49.8081L76.1603 59.7958L62.4271 65.5575L55.0699 60.3744L50.6471 57.1242L51.2184 43.3651C55.5441 39.2311 61.0289 36.7862 66.9497 35.7223ZM45.5108 47.935L44.9704 56.4137L37.4875 60.7396C39.2937 55.7031 41.8654 51.6758 45.5108 47.935ZM35.4585 67.9011L47.3738 61.1942L52.1687 64.7736L59.1751 69.9781L58.9428 77.7342L58.6891 85.1397L50.9194 90.5388L36.1316 84.7518C34.7379 79.206 34.3966 73.5962 35.4585 67.9011ZM38.2908 91.3067L49.1133 95.5753L52.358 108.399C46.0959 103.853 41.5237 98.1483 38.2908 91.3067ZM65.7214 113.92C63.2231 113.368 61.0544 112.445 58.8856 111.521L54.3112 94.2036L61.7514 89.1764L80.3127 93.3264L84.662 101.156L73.1521 114.524C70.7178 115.024 68.2196 114.472 65.7214 113.92ZM80.5614 114.778L89.1062 104.757L100.789 105.806C95.0815 110.376 87.8855 113.628 80.5614 114.778ZM105.423 100.949L89.8386 99.4334L85.1172 91.2747L91.652 77.153L94.0863 76.6531L105.928 74.5254L113.648 85.6689C111.884 91.4067 109.026 96.5072 105.423 100.949Z" fill="currentcolor"/>
</svg>
